<svg xmlns="http://www.w3.org/2000/svg" viewBox="0 0 320 220" width="320" height="220" role="img" aria-label="公司介绍模板预览"><rect width="320" height="220" fill="#f8fafc"/><rect x="24" y="20" width="90" height="7" rx="2" fill="#94a3b8"/><rect x="24" y="34" width="200" height="11" rx="2" fill="#475569"/><rect x="24" y="52" width="240" height="6" rx="2" fill="#cbd5e1"/><rect x="24" y="63" width="180" height="6" rx="2" fill="#cbd5e1"/><rect x="24" y="84" width="140" height="56" rx="4" fill="#e2e8f0"/><rect x="176" y="88" width="110" height="8" rx="2" fill="#94a3b8"/><rect x="176" y="104" width="120" height="5" rx="2" fill="#cbd5e1"/><rect x="176" y="114" width="100" height="5" rx="2" fill="#cbd5e1"/><rect x="176" y="128" width="52" height="12" rx="2" fill="#2563eb"/><rect x="0" y="152" width="320" height="30" fill="#eef2f7"/><rect x="28" y="160" width="30" height="9" rx="2" fill="#2563eb"/><rect x="28" y="173" width="44" height="4" rx="2" fill="#cbd5e1"/><rect x="102" y="160" width="30" height="9" rx="2" fill="#2563eb"/><rect x="102" y="173" width="44" height="4" rx="2" fill="#cbd5e1"/><rect x="176" y="160" width="30" height="9" rx="2" fill="#2563eb"/><rect x="176" y="173" width="44" height="4" rx="2" fill="#cbd5e1"/><rect x="250" y="160" width="30" height="9" rx="2" fill="#2563eb"/><rect x="250" y="173" width="44" height="4" rx="2" fill="#cbd5e1"/><rect x="24" y="192" width="86" height="20" rx="4" fill="#e2e8f0"/><rect x="119" y="192" width="86" height="20" rx="4" fill="#e2e8f0"/><rect x="214" y="192" width="86" height="20" rx="4" fill="#e2e8f0"/></svg>