<svg xmlns="http://www.w3.org/2000/svg" width="800" height="500" viewBox="0 0 800 500" role="img"><defs><linearGradient id="g" x1="0" y1="0" x2="1" y2="1"><stop offset="0" stop-color="#0F172A"/><stop offset="1" stop-color="#172554"/></linearGradient></defs><rect width="800" height="500" fill="url(#g)"/><line x1="361" y1="388" x2="208" y2="228" stroke="#3B82F6" stroke-opacity="0.26" stroke-width="1"/><line x1="361" y1="388" x2="499" y2="372" stroke="#3B82F6" stroke-opacity="0.26" stroke-width="1"/><line x1="361" y1="388" x2="349" y2="325" stroke="#3B82F6" stroke-opacity="0.26" stroke-width="1"/><line x1="361" y1="388" x2="323" y2="468" stroke="#3B82F6" stroke-opacity="0.26" stroke-width="1"/><line x1="752" y1="299" x2="719" y2="456" stroke="#3B82F6" stroke-opacity="0.26" stroke-width="1"/><line x1="752" y1="299" x2="590" y2="188" stroke="#3B82F6" stroke-opacity="0.26" stroke-width="1"/><line x1="752" y1="299" x2="569" y2="213" stroke="#3B82F6" stroke-opacity="0.26" stroke-width="1"/><line x1="289" y1="58" x2="208" y2="228" stroke="#3B82F6" stroke-opacity="0.26" stroke-width="1"/><line x1="36" y1="228" x2="2" y2="359" stroke="#3B82F6" stroke-opacity="0.26" stroke-width="1"/><line x1="36" y1="228" x2="122" y2="280" stroke="#3B82F6" stroke-opacity="0.26" stroke-width="1"/><line x1="36" y1="228" x2="208" y2="228" stroke="#3B82F6" stroke-opacity="0.26" stroke-width="1"/><line x1="2" y1="359" x2="122" y2="280" stroke="#3B82F6" stroke-opacity="0.26" stroke-width="1"/><line x1="122" y1="280" x2="208" y2="228" stroke="#3B82F6" stroke-opacity="0.26" stroke-width="1"/><line x1="208" y1="228" x2="349" y2="325" stroke="#3B82F6" stroke-opacity="0.26" stroke-width="1"/><line x1="499" y1="372" x2="590" y2="188" stroke="#3B82F6" stroke-opacity="0.26" stroke-width="1"/><line x1="499" y1="372" x2="349" y2="325" stroke="#3B82F6" stroke-opacity="0.26" stroke-width="1"/><line x1="499" y1="372" x2="323" y2="468" stroke="#3B82F6" stroke-opacity="0.26" stroke-width="1"/><line x1="499" y1="372" x2="569" y2="213" stroke="#3B82F6" stroke-opacity="0.26" stroke-width="1"/><line x1="590" y1="188" x2="569" y2="213" stroke="#3B82F6" stroke-opacity="0.26" stroke-width="1"/><line x1="349" y1="325" x2="323" y2="468" stroke="#3B82F6" stroke-opacity="0.26" stroke-width="1"/><circle cx="361" cy="388" r="7" fill="#F59E0B" fill-opacity="0.9"/><circle cx="752" cy="299" r="4" fill="#93C5FD" fill-opacity="0.9"/><circle cx="289" cy="58" r="4" fill="#93C5FD" fill-opacity="0.9"/><circle cx="719" cy="456" r="4" fill="#93C5FD" fill-opacity="0.9"/><circle cx="36" cy="228" r="7" fill="#93C5FD" fill-opacity="0.9"/><circle cx="2" cy="359" r="4" fill="#F59E0B" fill-opacity="0.9"/><circle cx="122" cy="280" r="4" fill="#93C5FD" fill-opacity="0.9"/><circle cx="208" cy="228" r="4" fill="#93C5FD" fill-opacity="0.9"/><circle cx="499" cy="372" r="7" fill="#93C5FD" fill-opacity="0.9"/><circle cx="590" cy="188" r="4" fill="#93C5FD" fill-opacity="0.9"/><circle cx="349" cy="325" r="4" fill="#F59E0B" fill-opacity="0.9"/><circle cx="323" cy="468" r="4" fill="#93C5FD" fill-opacity="0.9"/><circle cx="569" cy="213" r="7" fill="#93C5FD" fill-opacity="0.9"/></svg>